<svg width="683" height="77" viewBox="0 0 683 77" fill="none" xmlns="http://www.w3.org/2000/svg">
<path d="M20 10L3 26.9984V53.7985L20 70.7985" stroke="#00ffe691" stroke-opacity="0.51" stroke-width="6"/>
<path d="M663 10L680 26.9984V53.7985L663 70.7985" stroke="#00ffe691" stroke-opacity="0.51" stroke-width="6"/>
<path d="M19 10H289.747L301.446 21H352.142L363.841 10H663" stroke="#00ffe691" stroke-opacity="0.51" stroke-width="2"/>
<path d="M301 10L306.149 15H325.97H347.851L353 10H301Z" stroke="#00ffe691" stroke-opacity="0.51" stroke-width="5"/>
<path d="M8 50L30.5 72.5H65.5" stroke="#00ffe691" stroke-opacity="0.51"/>
<path d="M674.5 50L652 72.5H617" stroke="#00ffe691" stroke-opacity="0.51"/>
<path d="M65.5 72.5H83" stroke="#00ffe691" stroke-opacity="0.51" stroke-width="3"/>
<path d="M600 72.5H617.5" stroke="#00ffe691" stroke-opacity="0.51" stroke-width="3"/>
<path d="M81 72.5H92.5V75H113H115V71H150" stroke="#00ffe691" stroke-opacity="0.51"/>
<path d="M600 72.5H588.5V75H568H566V71H531" stroke="#00ffe691" stroke-opacity="0.51"/>
<path d="M117 75H163" stroke="#00ffe691" stroke-opacity="0.51" stroke-width="4"/>
<path d="M519 75L564 75" stroke="#00ffe691" stroke-opacity="0.51" stroke-width="4"/>
<path d="M163.5 75H184L179 70H245L250 75H432.5L437.5 70H499L494 75H518" stroke="#00ffe691" stroke-opacity="0.51" stroke-width="4"/>
<path d="M150 18H237L253 2H404L420 18H508.5" stroke="#00ffe691" stroke-opacity="0.51"/>
<path d="M624 15.5H651L665 1.5L679 15.5" stroke="#00ffe691" stroke-opacity="0.51"/>
<path d="M58 15.5H31L17 1.5L3 15.5" stroke="#00ffe691" stroke-opacity="0.51"/>
</svg>
