<svg width="193" height="67" viewBox="0 0 193 67" fill="none" xmlns="http://www.w3.org/2000/svg">
<path d="M1 33.5V66H192V1H1V33.5Z" stroke="#00F5ED" stroke-opacity="0.51"/>
<path d="M4 4H22.5" stroke="#00F5ED" stroke-opacity="0.51"/>
<path d="M170 63H188.5" stroke="#00F5ED" stroke-opacity="0.51"/>
<path d="M4 7V62.5" stroke="#00F5ED" stroke-opacity="0.51" stroke-width="3"/>
<path d="M189 5V60.5" stroke="#00F5ED" stroke-opacity="0.51" stroke-width="3"/>
<path d="M62.7955 28.9091C62.6989 27.9375 62.2699 27.1648 61.5085 26.5909C60.7472 26.017 59.7898 25.7301 58.6364 25.7301C57.8239 25.7301 57.108 25.8693 56.4886 26.1477C55.875 26.4261 55.392 26.8125 55.0398 27.3068C54.6932 27.7955 54.5199 28.3523 54.5199 28.9773C54.5199 29.4375 54.6193 29.8409 54.8182 30.1875C55.017 30.5341 55.2841 30.8324 55.6193 31.0824C55.9602 31.3267 56.3352 31.5369 56.7443 31.7131C57.1591 31.8892 57.5767 32.0369 57.9972 32.1562L59.8381 32.6847C60.3949 32.8381 60.9517 33.0341 61.5085 33.2727C62.0653 33.5114 62.5739 33.8125 63.0341 34.1761C63.5 34.5341 63.8722 34.9744 64.1506 35.4972C64.4347 36.0142 64.5767 36.6364 64.5767 37.3636C64.5767 38.2955 64.3352 39.1335 63.8523 39.8778C63.3693 40.6222 62.6761 41.2131 61.7727 41.6506C60.8693 42.0824 59.7869 42.2983 58.5256 42.2983C57.3381 42.2983 56.3068 42.1023 55.4318 41.7102C54.5568 41.3125 53.8693 40.7642 53.3693 40.0653C52.8693 39.3665 52.5881 38.5568 52.5256 37.6364H54.1619C54.2188 38.3239 54.446 38.9062 54.8438 39.3835C55.2415 39.8608 55.7585 40.2244 56.3949 40.4744C57.0312 40.7187 57.7415 40.8409 58.5256 40.8409C59.3949 40.8409 60.1676 40.696 60.8438 40.4062C61.5256 40.1108 62.0597 39.7017 62.446 39.179C62.8381 38.6506 63.0341 38.0369 63.0341 37.3381C63.0341 36.7472 62.8807 36.2528 62.5739 35.8551C62.267 35.4517 61.8381 35.1136 61.2869 34.8409C60.7415 34.5682 60.108 34.3267 59.3864 34.1165L57.2983 33.5028C55.929 33.0937 54.8665 32.5284 54.1108 31.8068C53.3551 31.0852 52.9773 30.1648 52.9773 29.0455C52.9773 28.108 53.2273 27.2841 53.7273 26.5739C54.233 25.858 54.9148 25.3011 55.7727 24.9034C56.6364 24.5 57.6051 24.2983 58.679 24.2983C59.7642 24.2983 60.7244 24.4972 61.5597 24.8949C62.3949 25.2926 63.0568 25.8409 63.5455 26.5398C64.0398 27.233 64.304 28.0227 64.3381 28.9091H62.7955ZM80.0455 24.5455H81.6392V36.1023C81.6392 37.2898 81.3608 38.3523 80.804 39.2898C80.2472 40.2216 79.4716 40.9574 78.4773 41.4972C77.4886 42.0312 76.3381 42.2983 75.0256 42.2983C73.7188 42.2983 72.5682 42.0284 71.5739 41.4886C70.5795 40.9489 69.804 40.2131 69.2472 39.2812C68.6903 38.3494 68.4119 37.2898 68.4119 36.1023V24.5455H70.0057V35.9915C70.0057 36.9176 70.2131 37.7443 70.6278 38.4716C71.0426 39.1932 71.625 39.7614 72.375 40.1761C73.1307 40.5909 74.0142 40.7983 75.0256 40.7983C76.0369 40.7983 76.9205 40.5909 77.6761 40.1761C78.4318 39.7614 79.0142 39.1932 79.4233 38.4716C79.8381 37.7443 80.0455 36.9176 80.0455 35.9915V24.5455ZM86.2713 42V24.5455H92.1605C93.2969 24.5455 94.2429 24.7443 94.9986 25.142C95.7599 25.5398 96.331 26.0824 96.7116 26.7699C97.0923 27.4574 97.2827 28.2386 97.2827 29.1136C97.2827 29.8409 97.1605 30.4631 96.9162 30.9801C96.6719 31.4972 96.3395 31.9148 95.919 32.233C95.4986 32.5511 95.0298 32.7812 94.5128 32.9233V33.0597C95.0753 33.0994 95.6207 33.2983 96.1491 33.6562C96.6776 34.0085 97.1122 34.5028 97.4531 35.1392C97.794 35.7756 97.9645 36.5369 97.9645 37.4233C97.9645 38.304 97.7685 39.0909 97.3764 39.7841C96.9844 40.4716 96.3821 41.0142 95.5696 41.4119C94.7628 41.804 93.7344 42 92.4844 42H86.2713ZM87.8651 40.5682H92.4844C93.831 40.5682 94.8253 40.2699 95.4673 39.6733C96.1151 39.0767 96.4389 38.3267 96.4389 37.4233C96.4389 36.7585 96.277 36.1562 95.9531 35.6165C95.6349 35.071 95.1832 34.6392 94.598 34.321C94.0185 34.0028 93.3366 33.8438 92.5526 33.8438H87.8651V40.5682ZM87.8651 32.429H92.3054C92.9929 32.429 93.5952 32.2869 94.1122 32.0028C94.6293 31.7187 95.0327 31.3267 95.3224 30.8267C95.6122 30.3267 95.7571 29.7557 95.7571 29.1136C95.7571 28.1875 95.456 27.4347 94.8537 26.8551C94.2514 26.2699 93.3537 25.9773 92.1605 25.9773H87.8651V32.429ZM101.81 24.5455H103.651L109.984 39.75H110.137L116.469 24.5455H118.31V42H116.81V27.9119H116.674L110.785 42H109.336L103.447 27.9119H103.31V42H101.81V24.5455ZM124.545 24.5455V42H122.951V24.5455H124.545ZM128.129 25.9773V24.5455H140.785V25.9773H135.254V42H133.66V25.9773H128.129Z" fill="#00F5ED" fill-opacity="0.8"/>
<path d="M23 14H58.431L64.947 7H126.442L132.958 14H169" stroke="#00F5ED" stroke-opacity="0.51"/>
<path d="M23 62H15.1455L11.0727 53L7 62" stroke="#00F5ED" stroke-opacity="0.51"/>
<path d="M39 62H31.1455L27.0727 53L23 62" stroke="#00F5ED" stroke-opacity="0.51"/>
</svg>
