<svg width="754" height="360" viewBox="0 0 754 360" fill="none" xmlns="http://www.w3.org/2000/svg">
<path d="M699 31L736 114.037V244.955L699 328" stroke="#00ffe691" stroke-opacity="0.51" stroke-width="6"/>
<path d="M56 31L19 114.037V244.955L56 328" stroke="#00ffe691" stroke-opacity="0.51" stroke-width="6"/>
<path d="M55 31H325.747L337.446 51H388.142L399.841 31H699" stroke="#00ffe691" stroke-opacity="0.51" stroke-width="2"/>
<path d="M337 30.9609L342.149 44.5H361.97H383.851L389 30.9609H337Z" stroke="#00ffe691" stroke-opacity="0.51" stroke-width="5"/>
<path d="M753 254L714.261 336H654" stroke="#00ffe691" stroke-opacity="0.51"/>
<path d="M1 254L39.7391 336H100" stroke="#00ffe691" stroke-opacity="0.51"/>
<path d="M636 335.805H653.5" stroke="#00ffe691" stroke-opacity="0.51" stroke-width="3"/>
<path d="M118 335.805H100.5" stroke="#00ffe691" stroke-opacity="0.51" stroke-width="3"/>
<path d="M636 335.5H624.5V343H604H602V331H567" stroke="#00ffe691" stroke-opacity="0.51"/>
<path d="M118 335.5H129.5V343H150H152V331H187" stroke="#00ffe691" stroke-opacity="0.51"/>
<path d="M199.5 327.501H220L215 315H281L286 327.501H468.5L473.5 315H535L530 327.501H554" stroke="#00ffe691" stroke-opacity="0.51" stroke-width="4"/>
<path d="M186 51H273.121L289.144 12H440.354L456.377 51H545" stroke="#00ffe691" stroke-opacity="0.51"/>
<path d="M661 41H688L702 18L716 41" stroke="#00ffe691" stroke-opacity="0.51"/>
<path d="M94 41H67L53 18L39 41" stroke="#00ffe691" stroke-opacity="0.51"/>
<path d="M689 14L678 28.5M676 14L670.5 21.25L665 28.5" stroke="#00ffe691" stroke-opacity="0.38" stroke-width="5"/>
<path d="M67 14L78 28.5M80 14L85.5 21.25L91 28.5" stroke="#00ffe691" stroke-opacity="0.38" stroke-width="5"/>
<path d="M663 14L652 28.5M650 14L644.5 21.25L639 28.5" stroke="#00ffe691" stroke-opacity="0.38" stroke-width="5"/>
<path d="M93 14L104 28.5M106 14L111.5 21.25L117 28.5" stroke="#00ffe691" stroke-opacity="0.38" stroke-width="5"/>
<path d="M637 14L626 28.5M624 14L618.5 21.25L613 28.5" stroke="#00ffe691" stroke-opacity="0.38" stroke-width="5"/>
<path d="M119 14L130 28.5M132 14L137.5 21.25L143 28.5" stroke="#00ffe691" stroke-opacity="0.38" stroke-width="5"/>
<path d="M67 4L146 4" stroke="#00ffe691" stroke-opacity="0.38" stroke-width="7"/>
<path d="M688.713 4L609.713 4" stroke="#00ffe691" stroke-opacity="0.38" stroke-width="7"/>
<path d="M143 3L150.66 13.2143L158.713 23.6255" stroke="#00ffe691" stroke-opacity="0.38" stroke-width="7"/>
<path d="M612.713 3L605.053 13.2143L597 23.6255" stroke="#00ffe691" stroke-opacity="0.38" stroke-width="7"/>
<circle cx="497.5" cy="341.5" r="11" stroke="#00ffe691" stroke-opacity="0.34"/>
<circle cx="497.5" cy="340.5" r="18" stroke="#00ffe691" stroke-opacity="0.34" stroke-width="3"/>
<path d="M511.741 330.133C511.741 330.552 512.176 331.034 512.298 331.461C512.419 331.885 512.727 332.37 512.753 332.8C512.785 333.342 512.937 333.842 512.937 334.409C512.937 334.961 512.937 335.513 512.937 336.065C512.937 337.173 512.455 338.26 511.925 339.187C511.716 339.552 511.416 339.971 511.118 340.27C510.823 340.565 510.145 340.683 509.994 340.985" stroke="#00DDDB" stroke-opacity="0.42" stroke-width="3" stroke-linecap="round"/>
<path d="M483.496 330C483.496 330.419 483.061 330.901 482.939 331.328C482.818 331.752 482.51 332.237 482.485 332.667C482.453 333.21 482.301 333.709 482.301 334.277C482.301 334.828 482.301 335.38 482.301 335.932C482.301 337.04 482.783 338.127 483.312 339.054C483.521 339.419 483.821 339.839 484.12 340.137C484.415 340.432 485.092 340.55 485.244 340.853" stroke="#00DDDB" stroke-opacity="0.42" stroke-width="3" stroke-linecap="round"/>
<path d="M515.322 342.125C515.053 342.445 515.075 343.094 514.893 343.5C514.714 343.902 514.637 344.472 514.38 344.817C514.055 345.253 513.85 345.733 513.485 346.167C513.13 346.59 512.774 347.012 512.419 347.434C511.706 348.282 510.638 348.804 509.636 349.173C509.241 349.318 508.741 349.446 508.321 349.482C507.905 349.518 507.311 349.172 507 349.306" stroke="#00DDDB" stroke-opacity="0.42" stroke-width="3" stroke-linecap="round"/>
<path d="M479.915 341.992C480.185 342.313 480.162 342.962 480.344 343.367C480.524 343.769 480.6 344.339 480.857 344.684C481.182 345.12 481.387 345.6 481.753 346.034C482.108 346.457 482.463 346.879 482.818 347.302C483.531 348.15 484.6 348.671 485.602 349.04C485.996 349.185 486.496 349.313 486.917 349.349C487.332 349.385 487.927 349.039 488.237 349.173" stroke="#00DDDB" stroke-opacity="0.42" stroke-width="3" stroke-linecap="round"/>
<circle cx="255.5" cy="341.5" r="11" stroke="#00ffe691" stroke-opacity="0.34"/>
<circle cx="255.5" cy="340.5" r="18" stroke="#00ffe691" stroke-opacity="0.34" stroke-width="3"/>
<path d="M269.741 330.133C269.741 330.552 270.176 331.034 270.298 331.461C270.419 331.885 270.727 332.37 270.753 332.8C270.785 333.342 270.937 333.842 270.937 334.409C270.937 334.961 270.937 335.513 270.937 336.065C270.937 337.173 270.455 338.26 269.925 339.187C269.716 339.552 269.416 339.971 269.118 340.27C268.823 340.565 268.145 340.683 267.994 340.985" stroke="#00DDDB" stroke-opacity="0.42" stroke-width="3" stroke-linecap="round"/>
<path d="M241.496 330C241.496 330.419 241.061 330.901 240.939 331.328C240.818 331.752 240.51 332.237 240.485 332.667C240.453 333.21 240.301 333.709 240.301 334.277C240.301 334.828 240.301 335.38 240.301 335.932C240.301 337.04 240.783 338.127 241.312 339.054C241.521 339.419 241.821 339.839 242.12 340.137C242.415 340.432 243.092 340.55 243.244 340.853" stroke="#00DDDB" stroke-opacity="0.42" stroke-width="3" stroke-linecap="round"/>
<path d="M273.322 342.125C273.053 342.445 273.075 343.094 272.893 343.5C272.714 343.902 272.637 344.472 272.38 344.817C272.055 345.253 271.85 345.733 271.485 346.167C271.13 346.59 270.774 347.012 270.419 347.434C269.706 348.282 268.638 348.804 267.636 349.173C267.241 349.318 266.741 349.446 266.321 349.482C265.905 349.518 265.311 349.172 265 349.306" stroke="#00DDDB" stroke-opacity="0.42" stroke-width="3" stroke-linecap="round"/>
<path d="M237.915 341.992C238.185 342.313 238.162 342.962 238.344 343.367C238.524 343.769 238.6 344.339 238.857 344.684C239.182 345.12 239.387 345.6 239.753 346.034C240.108 346.457 240.463 346.879 240.818 347.302C241.531 348.15 242.6 348.671 243.602 349.04C243.996 349.185 244.496 349.313 244.917 349.349C245.332 349.385 245.927 349.039 246.237 349.173" stroke="#00DDDB" stroke-opacity="0.42" stroke-width="3" stroke-linecap="round"/>
</svg>
